#N canvas 30 133 789 519 10;
#N canvas 251 210 979 566 16_Step_Record_Sequencer 0;
#X obj 113 127 hradio 15 1 0 16 empty empty empty 0 -8 0 10 -262144
-1 -1 0;
#X obj 261 161 bng 90 250 50 0 empty empty empty 17 7 0 10 -262144
-1 -1;
#N canvas 550 84 696 703 metronome 0;
#X obj -14 302 metro;
#X obj -14 346 mod 16;
#X obj -14 323 f;
#X obj 13 324 + 1;
#X obj -14 381 select 0 1 2 3 4 5 6 7 8 9 10 11 12 13 14 15;
#X obj -13 471 f;
#X obj 10 471 f;
#X obj 33 471 f;
#X obj 56 471 f;
#X obj 79 471 f;
#X obj 102 471 f;
#X obj 125 471 f;
#X obj 148 471 f;
#X obj 171 471 f;
#X obj 194 471 f;
#X obj 217 471 f;
#X obj 240 471 f;
#X obj 263 471 f;
#X obj 286 471 f;
#X obj 309 471 f;
#X obj 332 471 f;
#X obj 155 563 mtof;
#X obj 159 680 dac~;
#X obj 158 647 *~;
#X obj 157 602 phasor~;
#X obj 313 612 line;
#X msg -12 426 120;
#X obj 120 122 bng 15 250 50 0 empty empty empty 17 7 0 10 -262144
-1 -1;
#X msg 244 298 14;
#X obj 162 122 bng 15 250 50 0 empty empty empty 17 7 0 10 -262144
-1 -1;
#X msg -7 231 0;
#X obj 107 346 outlet;
#X text 109 103 START;
#X text 154 103 STOP;
#X msg 79 415 127;
#X msg 171 422 127;
#X msg 263 419 127;
#X msg 312 573 1 5;
#X msg 364 573 0 5;
#X obj 362 546 delay 5;
#X obj 234 653 demux 0 1;
#X obj 109 157 tgl 15 0 empty empty empty 17 7 0 10 -262144 -1 -1 0
1;
#X text 133 156 Metronome-On/OFF;
#X msg 34 230 60000;
#X floatatom 197 121 5 0 0 0 - - -;
#X msg 108 231 4;
#X obj 74 231 *;
#X obj 47 251 /;
#X floatatom 13 279 5 0 0 0 - - -;
#X text 198 103 BPM;
#X connect 0 0 2 0;
#X connect 1 0 4 0;
#X connect 1 0 31 0;
#X connect 2 0 3 0;
#X connect 3 0 2 1;
#X connect 3 0 1 0;
#X connect 4 0 26 0;
#X connect 4 0 37 0;
#X connect 4 0 39 0;
#X connect 4 4 34 0;
#X connect 4 4 37 0;
#X connect 4 4 39 0;
#X connect 4 8 37 0;
#X connect 4 8 35 0;
#X connect 4 8 39 0;
#X connect 4 12 36 0;
#X connect 4 12 37 0;
#X connect 4 12 39 0;
#X connect 5 0 21 0;
#X connect 6 0 21 0;
#X connect 7 0 21 0;
#X connect 8 0 21 0;
#X connect 9 0 21 0;
#X connect 10 0 21 0;
#X connect 11 0 21 0;
#X connect 12 0 21 0;
#X connect 13 0 21 0;
#X connect 14 0 21 0;
#X connect 15 0 21 0;
#X connect 16 0 21 0;
#X connect 17 0 21 0;
#X connect 18 0 21 0;
#X connect 19 0 21 0;
#X connect 20 0 21 0;
#X connect 21 0 24 0;
#X connect 23 0 22 0;
#X connect 23 0 22 1;
#X connect 24 0 23 0;
#X connect 25 0 40 0;
#X connect 26 0 5 0;
#X connect 27 0 28 0;
#X connect 27 0 0 0;
#X connect 28 0 2 0;
#X connect 29 0 30 0;
#X connect 30 0 0 0;
#X connect 34 0 9 0;
#X connect 35 0 13 0;
#X connect 36 0 17 0;
#X connect 37 0 25 0;
#X connect 38 0 25 0;
#X connect 39 0 38 0;
#X connect 40 1 23 1;
#X connect 41 0 40 1;
#X connect 43 0 47 0;
#X connect 44 0 46 0;
#X connect 44 0 45 0;
#X connect 44 0 43 0;
#X connect 45 0 46 1;
#X connect 46 0 47 1;
#X connect 47 0 48 0;
#X connect 48 0 0 1;
#X coords 0 -1 1 1 140 100 2 100 100;
#X restore 114 152 pd metronome;
#X text 260 144 RESET SEQUENCER;
#N canvas 592 225 686 508 sequence_counter 0;
#X obj 65 216 inlet;
#X obj 167 213 inlet;
#X obj 257 216 inlet;
#X obj 100 263 select 0 1 2 3 4 5 6 7 8 9 10 11 12 13 14 15;
#X obj 101 353 f;
#X obj 124 353 f;
#X obj 147 353 f;
#X obj 170 353 f;
#X obj 193 353 f;
#X obj 216 353 f;
#X obj 239 353 f;
#X obj 262 353 f;
#X obj 285 353 f;
#X obj 308 353 f;
#X obj 331 353 f;
#X obj 354 353 f;
#X obj 377 353 f;
#X obj 400 353 f;
#X obj 423 353 f;
#X obj 446 353 f;
#X obj 371 263 demux 0 1 2 3 4 5 6 7 8 9 10 11 12 13 14 15;
#X floatatom 65 263 5 0 0 0 - - -;
#X obj 77 455 outlet;
#X obj 456 209 inlet;
#X text 106 102 RESET;
#X text 179 102 COUNTER;
#X text 268 103 DATA;
#X text 342 102 COUNTER;
#X connect 0 0 21 0;
#X connect 1 0 3 0;
#X connect 2 0 20 0;
#X connect 3 0 4 0;
#X connect 3 1 5 0;
#X connect 3 2 6 0;
#X connect 3 3 7 0;
#X connect 3 4 8 0;
#X connect 3 5 9 0;
#X connect 3 6 10 0;
#X connect 3 7 11 0;
#X connect 3 8 12 0;
#X connect 3 9 13 0;
#X connect 3 10 14 0;
#X connect 3 11 15 0;
#X connect 3 12 16 0;
#X connect 3 13 17 0;
#X connect 3 14 18 0;
#X connect 3 15 19 0;
#X connect 4 0 22 0;
#X connect 5 0 22 0;
#X connect 6 0 22 0;
#X connect 7 0 22 0;
#X connect 8 0 22 0;
#X connect 9 0 22 0;
#X connect 10 0 22 0;
#X connect 11 0 22 0;
#X connect 12 0 22 0;
#X connect 13 0 22 0;
#X connect 14 0 22 0;
#X connect 15 0 22 0;
#X connect 16 0 22 0;
#X connect 17 0 22 0;
#X connect 18 0 22 0;
#X connect 19 0 22 0;
#X connect 20 0 4 1;
#X connect 20 1 5 1;
#X connect 20 2 6 1;
#X connect 20 3 7 1;
#X connect 20 4 8 1;
#X connect 20 5 9 1;
#X connect 20 6 10 1;
#X connect 20 7 11 1;
#X connect 20 8 12 1;
#X connect 20 9 13 1;
#X connect 20 10 14 1;
#X connect 20 11 15 1;
#X connect 20 12 16 1;
#X connect 20 13 17 1;
#X connect 20 14 18 1;
#X connect 20 15 19 1;
#X connect 21 0 4 0;
#X connect 21 0 5 0;
#X connect 21 0 6 0;
#X connect 21 0 7 0;
#X connect 21 0 8 0;
#X connect 21 0 9 0;
#X connect 21 0 10 0;
#X connect 21 0 11 0;
#X connect 21 0 12 0;
#X connect 21 0 13 0;
#X connect 21 0 14 0;
#X connect 21 0 15 0;
#X connect 21 0 16 0;
#X connect 21 0 17 0;
#X connect 21 0 18 0;
#X connect 21 0 19 0;
#X connect 23 0 20 1;
#X coords 0 -1 1 1 300 20 2 100 100;
#X restore 94 409 pd sequence_counter;
#N canvas 592 225 686 508 sequence_counter 0;
#X obj 65 216 inlet;
#X obj 167 213 inlet;
#X obj 257 216 inlet;
#X obj 100 263 select 0 1 2 3 4 5 6 7 8 9 10 11 12 13 14 15;
#X obj 101 353 f;
#X obj 124 353 f;
#X obj 147 353 f;
#X obj 170 353 f;
#X obj 193 353 f;
#X obj 216 353 f;
#X obj 239 353 f;
#X obj 262 353 f;
#X obj 285 353 f;
#X obj 308 353 f;
#X obj 331 353 f;
#X obj 354 353 f;
#X obj 377 353 f;
#X obj 400 353 f;
#X obj 423 353 f;
#X obj 446 353 f;
#X obj 371 263 demux 0 1 2 3 4 5 6 7 8 9 10 11 12 13 14 15;
#X floatatom 65 263 5 0 0 0 - - -;
#X obj 77 455 outlet;
#X obj 456 209 inlet;
#X text 106 102 RESET;
#X text 179 102 COUNTER;
#X text 268 103 DATA;
#X text 342 102 COUNTER;
#X connect 0 0 21 0;
#X connect 1 0 3 0;
#X connect 2 0 20 0;
#X connect 3 0 4 0;
#X connect 3 1 5 0;
#X connect 3 2 6 0;
#X connect 3 3 7 0;
#X connect 3 4 8 0;
#X connect 3 5 9 0;
#X connect 3 6 10 0;
#X connect 3 7 11 0;
#X connect 3 8 12 0;
#X connect 3 9 13 0;
#X connect 3 10 14 0;
#X connect 3 11 15 0;
#X connect 3 12 16 0;
#X connect 3 13 17 0;
#X connect 3 14 18 0;
#X connect 3 15 19 0;
#X connect 4 0 22 0;
#X connect 5 0 22 0;
#X connect 6 0 22 0;
#X connect 7 0 22 0;
#X connect 8 0 22 0;
#X connect 9 0 22 0;
#X connect 10 0 22 0;
#X connect 11 0 22 0;
#X connect 12 0 22 0;
#X connect 13 0 22 0;
#X connect 14 0 22 0;
#X connect 15 0 22 0;
#X connect 16 0 22 0;
#X connect 17 0 22 0;
#X connect 18 0 22 0;
#X connect 19 0 22 0;
#X connect 20 0 4 1;
#X connect 20 1 5 1;
#X connect 20 2 6 1;
#X connect 20 3 7 1;
#X connect 20 4 8 1;
#X connect 20 5 9 1;
#X connect 20 6 10 1;
#X connect 20 7 11 1;
#X connect 20 8 12 1;
#X connect 20 9 13 1;
#X connect 20 10 14 1;
#X connect 20 11 15 1;
#X connect 20 12 16 1;
#X connect 20 13 17 1;
#X connect 20 14 18 1;
#X connect 20 15 19 1;
#X connect 21 0 4 0;
#X connect 21 0 5 0;
#X connect 21 0 6 0;
#X connect 21 0 7 0;
#X connect 21 0 8 0;
#X connect 21 0 9 0;
#X connect 21 0 10 0;
#X connect 21 0 11 0;
#X connect 21 0 12 0;
#X connect 21 0 13 0;
#X connect 21 0 14 0;
#X connect 21 0 15 0;
#X connect 21 0 16 0;
#X connect 21 0 17 0;
#X connect 21 0 18 0;
#X connect 21 0 19 0;
#X connect 23 0 20 1;
#X coords 0 -1 1 1 300 20 2 100 100;
#X restore 104 440 pd sequence_counter;
#N canvas 592 225 686 508 sequence_counter 0;
#X obj 65 216 inlet;
#X obj 167 213 inlet;
#X obj 257 216 inlet;
#X obj 100 263 select 0 1 2 3 4 5 6 7 8 9 10 11 12 13 14 15;
#X obj 101 353 f;
#X obj 124 353 f;
#X obj 147 353 f;
#X obj 170 353 f;
#X obj 193 353 f;
#X obj 216 353 f;
#X obj 239 353 f;
#X obj 262 353 f;
#X obj 285 353 f;
#X obj 308 353 f;
#X obj 331 353 f;
#X obj 354 353 f;
#X obj 377 353 f;
#X obj 400 353 f;
#X obj 423 353 f;
#X obj 446 353 f;
#X obj 371 263 demux 0 1 2 3 4 5 6 7 8 9 10 11 12 13 14 15;
#X floatatom 65 263 5 0 0 0 - - -;
#X obj 77 455 outlet;
#X obj 456 209 inlet;
#X text 106 102 RESET;
#X text 179 102 COUNTER;
#X text 268 103 DATA;
#X text 342 102 COUNTER;
#X connect 0 0 21 0;
#X connect 1 0 3 0;
#X connect 2 0 20 0;
#X connect 3 0 4 0;
#X connect 3 1 5 0;
#X connect 3 2 6 0;
#X connect 3 3 7 0;
#X connect 3 4 8 0;
#X connect 3 5 9 0;
#X connect 3 6 10 0;
#X connect 3 7 11 0;
#X connect 3 8 12 0;
#X connect 3 9 13 0;
#X connect 3 10 14 0;
#X connect 3 11 15 0;
#X connect 3 12 16 0;
#X connect 3 13 17 0;
#X connect 3 14 18 0;
#X connect 3 15 19 0;
#X connect 4 0 22 0;
#X connect 5 0 22 0;
#X connect 6 0 22 0;
#X connect 7 0 22 0;
#X connect 8 0 22 0;
#X connect 9 0 22 0;
#X connect 10 0 22 0;
#X connect 11 0 22 0;
#X connect 12 0 22 0;
#X connect 13 0 22 0;
#X connect 14 0 22 0;
#X connect 15 0 22 0;
#X connect 16 0 22 0;
#X connect 17 0 22 0;
#X connect 18 0 22 0;
#X connect 19 0 22 0;
#X connect 20 0 4 1;
#X connect 20 1 5 1;
#X connect 20 2 6 1;
#X connect 20 3 7 1;
#X connect 20 4 8 1;
#X connect 20 5 9 1;
#X connect 20 6 10 1;
#X connect 20 7 11 1;
#X connect 20 8 12 1;
#X connect 20 9 13 1;
#X connect 20 10 14 1;
#X connect 20 11 15 1;
#X connect 20 12 16 1;
#X connect 20 13 17 1;
#X connect 20 14 18 1;
#X connect 20 15 19 1;
#X connect 21 0 4 0;
#X connect 21 0 5 0;
#X connect 21 0 6 0;
#X connect 21 0 7 0;
#X connect 21 0 8 0;
#X connect 21 0 9 0;
#X connect 21 0 10 0;
#X connect 21 0 11 0;
#X connect 21 0 12 0;
#X connect 21 0 13 0;
#X connect 21 0 14 0;
#X connect 21 0 15 0;
#X connect 21 0 16 0;
#X connect 21 0 17 0;
#X connect 21 0 18 0;
#X connect 21 0 19 0;
#X connect 23 0 20 1;
#X coords 0 -1 1 1 300 20 2 100 100;
#X restore 123 473 pd sequence_counter;
#N canvas 656 217 686 508 sequence_counter 0;
#X obj 65 216 inlet;
#X obj 167 213 inlet;
#X obj 257 216 inlet;
#X obj 100 263 select 0 1 2 3 4 5 6 7 8 9 10 11 12 13 14 15;
#X obj 101 353 f;
#X obj 124 353 f;
#X obj 147 353 f;
#X obj 170 353 f;
#X obj 193 353 f;
#X obj 216 353 f;
#X obj 239 353 f;
#X obj 262 353 f;
#X obj 285 353 f;
#X obj 308 353 f;
#X obj 331 353 f;
#X obj 354 353 f;
#X obj 377 353 f;
#X obj 400 353 f;
#X obj 423 353 f;
#X obj 446 353 f;
#X obj 371 263 demux 0 1 2 3 4 5 6 7 8 9 10 11 12 13 14 15;
#X floatatom 65 263 5 0 0 0 - - -;
#X obj 77 455 outlet;
#X obj 456 209 inlet;
#X text 106 102 RESET;
#X text 179 102 COUNTER;
#X text 268 103 DATA;
#X text 342 102 COUNTER;
#X connect 0 0 21 0;
#X connect 1 0 3 0;
#X connect 2 0 20 0;
#X connect 3 0 4 0;
#X connect 3 1 5 0;
#X connect 3 2 6 0;
#X connect 3 3 7 0;
#X connect 3 4 8 0;
#X connect 3 5 9 0;
#X connect 3 6 10 0;
#X connect 3 7 11 0;
#X connect 3 8 12 0;
#X connect 3 9 13 0;
#X connect 3 10 14 0;
#X connect 3 11 15 0;
#X connect 3 12 16 0;
#X connect 3 13 17 0;
#X connect 3 14 18 0;
#X connect 3 15 19 0;
#X connect 4 0 22 0;
#X connect 5 0 22 0;
#X connect 6 0 22 0;
#X connect 7 0 22 0;
#X connect 8 0 22 0;
#X connect 9 0 22 0;
#X connect 10 0 22 0;
#X connect 11 0 22 0;
#X connect 12 0 22 0;
#X connect 13 0 22 0;
#X connect 14 0 22 0;
#X connect 15 0 22 0;
#X connect 16 0 22 0;
#X connect 17 0 22 0;
#X connect 18 0 22 0;
#X connect 19 0 22 0;
#X connect 20 0 4 1;
#X connect 20 1 5 1;
#X connect 20 2 6 1;
#X connect 20 3 7 1;
#X connect 20 4 8 1;
#X connect 20 5 9 1;
#X connect 20 6 10 1;
#X connect 20 7 11 1;
#X connect 20 8 12 1;
#X connect 20 9 13 1;
#X connect 20 10 14 1;
#X connect 20 11 15 1;
#X connect 20 12 16 1;
#X connect 20 13 17 1;
#X connect 20 14 18 1;
#X connect 20 15 19 1;
#X connect 21 0 4 0;
#X connect 21 0 5 0;
#X connect 21 0 6 0;
#X connect 21 0 7 0;
#X connect 21 0 8 0;
#X connect 21 0 9 0;
#X connect 21 0 10 0;
#X connect 21 0 11 0;
#X connect 21 0 12 0;
#X connect 21 0 13 0;
#X connect 21 0 14 0;
#X connect 21 0 15 0;
#X connect 21 0 16 0;
#X connect 21 0 17 0;
#X connect 21 0 18 0;
#X connect 21 0 19 0;
#X connect 23 0 20 1;
#X coords 0 -1 1 1 300 20 2 100 100;
#X restore 137 505 pd sequence_counter;
#X text 105 104 Note In;
#X text 285 103 Velocity In;
#X text 105 253 Note Out;
#X text 278 255 Velocity Out;
#X obj 536 116 poly 4;
#X obj 537 171 pack f f f;
#X obj 538 216 route 1 2 3 4;
#X obj 521 75 inlet;
#X obj 676 79 inlet;
#X obj 56 590 outlet;
#X obj 99 589 outlet;
#X obj 146 589 outlet;
#X obj 190 589 outlet;
#X obj 235 589 outlet;
#X obj 285 589 outlet;
#X obj 330 589 outlet;
#X obj 376 590 outlet;
#X text 522 32 Record Button needs to turn inlets on or off;
#X obj 371 259 unpack f;
#X obj 440 259 unpack f;
#X obj 509 259 unpack f;
#X obj 579 259 unpack f;
#N canvas 594 213 784 546 sequence_counter 0;
#X obj 57 132 inlet;
#X obj 159 129 inlet;
#X obj 436 132 inlet;
#X obj 92 179 select 0 1 2 3 4 5 6 7 8 9 10 11 12 13 14 15;
#X floatatom 57 179 5 0 0 0 - - -;
#X obj 64 496 outlet;
#X text 106 102 RESET;
#X text 179 102 COUNTER;
#X text 268 103 DATA;
#N canvas 230 469 587 383 key_length 0;
#X obj 117 91 timer;
#X floatatom 157 115 5 0 0 0 - - -;
#X obj 119 139 delay;
#X msg 119 163 0;
#X obj 119 187 line;
#N canvas 420 366 760 421 bang_switch 0;
#X obj 416 63 f;
#X obj 452 63 + 1;
#X obj 416 8 inlet;
#X obj 416 34 bng 15 250 50 0 empty empty empty 17 7 0 10 -262144 -1
-1;
#X obj 416 85 mod 2;
#X obj 418 122 route 0 1;
#X obj 401 175 outlet;
#X obj 450 176 outlet;
#X obj 507 50 spigot;
#X obj 505 176 outlet;
#X connect 0 0 1 0;
#X connect 0 0 4 0;
#X connect 1 0 0 1;
#X connect 2 0 3 0;
#X connect 2 0 8 1;
#X connect 2 0 8 0;
#X connect 3 0 0 0;
#X connect 4 0 5 0;
#X connect 5 0 6 0;
#X connect 5 1 7 0;
#X connect 8 0 9 0;
#X restore 117 66 pd bang_switch;
#X floatatom 198 116 5 0 0 0 - - -;
#X obj 117 27 inlet;
#X obj 117 213 outlet;
#X obj 217 28 inlet;
#X connect 0 0 1 0;
#X connect 1 0 2 1;
#X connect 2 0 3 0;
#X connect 3 0 4 0;
#X connect 4 0 8 0;
#X connect 5 0 0 0;
#X connect 5 1 0 1;
#X connect 5 2 6 0;
#X connect 6 0 4 0;
#X connect 7 0 5 0;
#X connect 9 0 6 0;
#X connect 9 0 2 0;
#X restore -89 340 pd key_length;
#N canvas 230 469 587 383 key_length 0;
#X obj 117 91 timer;
#X floatatom 157 115 5 0 0 0 - - -;
#X obj 119 139 delay;
#X msg 119 163 0;
#X obj 119 187 line;
#N canvas 420 366 760 421 bang_switch 0;
#X obj 416 63 f;
#X obj 452 63 + 1;
#X obj 416 8 inlet;
#X obj 416 34 bng 15 250 50 0 empty empty empty 17 7 0 10 -262144 -1
-1;
#X obj 416 85 mod 2;
#X obj 418 122 route 0 1;
#X obj 401 175 outlet;
#X obj 450 176 outlet;
#X obj 507 50 spigot;
#X obj 505 176 outlet;
#X connect 0 0 1 0;
#X connect 0 0 4 0;
#X connect 1 0 0 1;
#X connect 2 0 3 0;
#X connect 2 0 8 1;
#X connect 2 0 8 0;
#X connect 3 0 0 0;
#X connect 4 0 5 0;
#X connect 5 0 6 0;
#X connect 5 1 7 0;
#X connect 8 0 9 0;
#X restore 117 66 pd bang_switch;
#X floatatom 198 116 5 0 0 0 - - -;
#X obj 117 27 inlet;
#X obj 117 213 outlet;
#X obj 217 28 inlet;
#X connect 0 0 1 0;
#X connect 1 0 2 1;
#X connect 2 0 3 0;
#X connect 3 0 4 0;
#X connect 4 0 8 0;
#X connect 5 0 0 0;
#X connect 5 1 0 1;
#X connect 5 2 6 0;
#X connect 6 0 4 0;
#X connect 7 0 5 0;
#X connect 9 0 6 0;
#X connect 9 0 2 0;
#X restore -66 366 pd key_length;
#N canvas 230 469 587 383 key_length 0;
#X obj 117 91 timer;
#X floatatom 157 115 5 0 0 0 - - -;
#X obj 119 139 delay;
#X msg 119 163 0;
#X obj 119 187 line;
#N canvas 420 366 760 421 bang_switch 0;
#X obj 416 63 f;
#X obj 452 63 + 1;
#X obj 416 8 inlet;
#X obj 416 34 bng 15 250 50 0 empty empty empty 17 7 0 10 -262144 -1
-1;
#X obj 416 85 mod 2;
#X obj 418 122 route 0 1;
#X obj 401 175 outlet;
#X obj 450 176 outlet;
#X obj 507 50 spigot;
#X obj 505 176 outlet;
#X connect 0 0 1 0;
#X connect 0 0 4 0;
#X connect 1 0 0 1;
#X connect 2 0 3 0;
#X connect 2 0 8 1;
#X connect 2 0 8 0;
#X connect 3 0 0 0;
#X connect 4 0 5 0;
#X connect 5 0 6 0;
#X connect 5 1 7 0;
#X connect 8 0 9 0;
#X restore 117 66 pd bang_switch;
#X floatatom 198 116 5 0 0 0 - - -;
#X obj 117 27 inlet;
#X obj 117 213 outlet;
#X obj 217 28 inlet;
#X connect 0 0 1 0;
#X connect 1 0 2 1;
#X connect 2 0 3 0;
#X connect 3 0 4 0;
#X connect 4 0 8 0;
#X connect 5 0 0 0;
#X connect 5 1 0 1;
#X connect 5 2 6 0;
#X connect 6 0 4 0;
#X connect 7 0 5 0;
#X connect 9 0 6 0;
#X connect 9 0 2 0;
#X restore -10 419 pd key_length;
#N canvas 230 469 587 383 key_length 0;
#X obj 117 91 timer;
#X floatatom 157 115 5 0 0 0 - - -;
#X obj 119 139 delay;
#X msg 119 163 0;
#X obj 119 187 line;
#N canvas 420 366 760 421 bang_switch 0;
#X obj 416 63 f;
#X obj 452 63 + 1;
#X obj 416 8 inlet;
#X obj 416 34 bng 15 250 50 0 empty empty empty 17 7 0 10 -262144 -1
-1;
#X obj 416 85 mod 2;
#X obj 418 122 route 0 1;
#X obj 401 175 outlet;
#X obj 450 176 outlet;
#X obj 507 50 spigot;
#X obj 505 176 outlet;
#X connect 0 0 1 0;
#X connect 0 0 4 0;
#X connect 1 0 0 1;
#X connect 2 0 3 0;
#X connect 2 0 8 1;
#X connect 2 0 8 0;
#X connect 3 0 0 0;
#X connect 4 0 5 0;
#X connect 5 0 6 0;
#X connect 5 1 7 0;
#X connect 8 0 9 0;
#X restore 117 66 pd bang_switch;
#X floatatom 198 116 5 0 0 0 - - -;
#X obj 117 27 inlet;
#X obj 117 213 outlet;
#X obj 217 28 inlet;
#X connect 0 0 1 0;
#X connect 1 0 2 1;
#X connect 2 0 3 0;
#X connect 3 0 4 0;
#X connect 4 0 8 0;
#X connect 5 0 0 0;
#X connect 5 1 0 1;
#X connect 5 2 6 0;
#X connect 6 0 4 0;
#X connect 7 0 5 0;
#X connect 9 0 6 0;
#X connect 9 0 2 0;
#X restore -44 392 pd key_length;
#N canvas 230 469 587 383 key_length 0;
#X obj 117 91 timer;
#X floatatom 157 115 5 0 0 0 - - -;
#X obj 119 139 delay;
#X msg 119 163 0;
#X obj 119 187 line;
#N canvas 420 366 760 421 bang_switch 0;
#X obj 416 63 f;
#X obj 452 63 + 1;
#X obj 416 8 inlet;
#X obj 416 34 bng 15 250 50 0 empty empty empty 17 7 0 10 -262144 -1
-1;
#X obj 416 85 mod 2;
#X obj 418 122 route 0 1;
#X obj 401 175 outlet;
#X obj 450 176 outlet;
#X obj 507 50 spigot;
#X obj 505 176 outlet;
#X connect 0 0 1 0;
#X connect 0 0 4 0;
#X connect 1 0 0 1;
#X connect 2 0 3 0;
#X connect 2 0 8 1;
#X connect 2 0 8 0;
#X connect 3 0 0 0;
#X connect 4 0 5 0;
#X connect 5 0 6 0;
#X connect 5 1 7 0;
#X connect 8 0 9 0;
#X restore 117 66 pd bang_switch;
#X floatatom 198 116 5 0 0 0 - - -;
#X obj 117 27 inlet;
#X obj 117 213 outlet;
#X obj 217 28 inlet;
#X connect 0 0 1 0;
#X connect 1 0 2 1;
#X connect 2 0 3 0;
#X connect 3 0 4 0;
#X connect 4 0 8 0;
#X connect 5 0 0 0;
#X connect 5 1 0 1;
#X connect 5 2 6 0;
#X connect 6 0 4 0;
#X connect 7 0 5 0;
#X connect 9 0 6 0;
#X connect 9 0 2 0;
#X restore -191 235 pd key_length;
#N canvas 230 469 587 383 key_length 0;
#X obj 117 91 timer;
#X floatatom 157 115 5 0 0 0 - - -;
#X obj 119 139 delay;
#X msg 119 163 0;
#X obj 119 187 line;
#N canvas 420 366 760 421 bang_switch 0;
#X obj 416 63 f;
#X obj 452 63 + 1;
#X obj 416 8 inlet;
#X obj 416 34 bng 15 250 50 0 empty empty empty 17 7 0 10 -262144 -1
-1;
#X obj 416 85 mod 2;
#X obj 418 122 route 0 1;
#X obj 401 175 outlet;
#X obj 450 176 outlet;
#X obj 507 50 spigot;
#X obj 505 176 outlet;
#X connect 0 0 1 0;
#X connect 0 0 4 0;
#X connect 1 0 0 1;
#X connect 2 0 3 0;
#X connect 2 0 8 1;
#X connect 2 0 8 0;
#X connect 3 0 0 0;
#X connect 4 0 5 0;
#X connect 5 0 6 0;
#X connect 5 1 7 0;
#X connect 8 0 9 0;
#X restore 117 66 pd bang_switch;
#X floatatom 198 116 5 0 0 0 - - -;
#X obj 117 27 inlet;
#X obj 117 213 outlet;
#X obj 217 28 inlet;
#X connect 0 0 1 0;
#X connect 1 0 2 1;
#X connect 2 0 3 0;
#X connect 3 0 4 0;
#X connect 4 0 8 0;
#X connect 5 0 0 0;
#X connect 5 1 0 1;
#X connect 5 2 6 0;
#X connect 6 0 4 0;
#X connect 7 0 5 0;
#X connect 9 0 6 0;
#X connect 9 0 2 0;
#X restore -168 261 pd key_length;
#N canvas 230 469 587 383 key_length 0;
#X obj 117 91 timer;
#X floatatom 157 115 5 0 0 0 - - -;
#X obj 119 139 delay;
#X msg 119 163 0;
#X obj 119 187 line;
#N canvas 420 366 760 421 bang_switch 0;
#X obj 416 63 f;
#X obj 452 63 + 1;
#X obj 416 8 inlet;
#X obj 416 34 bng 15 250 50 0 empty empty empty 17 7 0 10 -262144 -1
-1;
#X obj 416 85 mod 2;
#X obj 418 122 route 0 1;
#X obj 401 175 outlet;
#X obj 450 176 outlet;
#X obj 507 50 spigot;
#X obj 505 176 outlet;
#X connect 0 0 1 0;
#X connect 0 0 4 0;
#X connect 1 0 0 1;
#X connect 2 0 3 0;
#X connect 2 0 8 1;
#X connect 2 0 8 0;
#X connect 3 0 0 0;
#X connect 4 0 5 0;
#X connect 5 0 6 0;
#X connect 5 1 7 0;
#X connect 8 0 9 0;
#X restore 117 66 pd bang_switch;
#X floatatom 198 116 5 0 0 0 - - -;
#X obj 117 27 inlet;
#X obj 117 213 outlet;
#X obj 217 28 inlet;
#X connect 0 0 1 0;
#X connect 1 0 2 1;
#X connect 2 0 3 0;
#X connect 3 0 4 0;
#X connect 4 0 8 0;
#X connect 5 0 0 0;
#X connect 5 1 0 1;
#X connect 5 2 6 0;
#X connect 6 0 4 0;
#X connect 7 0 5 0;
#X connect 9 0 6 0;
#X connect 9 0 2 0;
#X restore -112 314 pd key_length;
#N canvas 230 469 587 383 key_length 0;
#X obj 117 91 timer;
#X floatatom 157 115 5 0 0 0 - - -;
#X obj 119 139 delay;
#X msg 119 163 0;
#X obj 119 187 line;
#N canvas 420 366 760 421 bang_switch 0;
#X obj 416 63 f;
#X obj 452 63 + 1;
#X obj 416 8 inlet;
#X obj 416 34 bng 15 250 50 0 empty empty empty 17 7 0 10 -262144 -1
-1;
#X obj 416 85 mod 2;
#X obj 418 122 route 0 1;
#X obj 401 175 outlet;
#X obj 450 176 outlet;
#X obj 507 50 spigot;
#X obj 505 176 outlet;
#X connect 0 0 1 0;
#X connect 0 0 4 0;
#X connect 1 0 0 1;
#X connect 2 0 3 0;
#X connect 2 0 8 1;
#X connect 2 0 8 0;
#X connect 3 0 0 0;
#X connect 4 0 5 0;
#X connect 5 0 6 0;
#X connect 5 1 7 0;
#X connect 8 0 9 0;
#X restore 117 66 pd bang_switch;
#X floatatom 198 116 5 0 0 0 - - -;
#X obj 117 27 inlet;
#X obj 117 213 outlet;
#X obj 217 28 inlet;
#X connect 0 0 1 0;
#X connect 1 0 2 1;
#X connect 2 0 3 0;
#X connect 3 0 4 0;
#X connect 4 0 8 0;
#X connect 5 0 0 0;
#X connect 5 1 0 1;
#X connect 5 2 6 0;
#X connect 6 0 4 0;
#X connect 7 0 5 0;
#X connect 9 0 6 0;
#X connect 9 0 2 0;
#X restore -146 287 pd key_length;
#N canvas 230 469 587 383 key_length 0;
#X obj 117 91 timer;
#X floatatom 157 115 5 0 0 0 - - -;
#X obj 119 139 delay;
#X msg 119 163 0;
#X obj 119 187 line;
#N canvas 420 366 760 421 bang_switch 0;
#X obj 416 63 f;
#X obj 452 63 + 1;
#X obj 416 8 inlet;
#X obj 416 34 bng 15 250 50 0 empty empty empty 17 7 0 10 -262144 -1
-1;
#X obj 416 85 mod 2;
#X obj 418 122 route 0 1;
#X obj 401 175 outlet;
#X obj 450 176 outlet;
#X obj 507 50 spigot;
#X obj 505 176 outlet;
#X connect 0 0 1 0;
#X connect 0 0 4 0;
#X connect 1 0 0 1;
#X connect 2 0 3 0;
#X connect 2 0 8 1;
#X connect 2 0 8 0;
#X connect 3 0 0 0;
#X connect 4 0 5 0;
#X connect 5 0 6 0;
#X connect 5 1 7 0;
#X connect 8 0 9 0;
#X restore 117 66 pd bang_switch;
#X floatatom 198 116 5 0 0 0 - - -;
#X obj 117 27 inlet;
#X obj 117 213 outlet;
#X obj 217 28 inlet;
#X connect 0 0 1 0;
#X connect 1 0 2 1;
#X connect 2 0 3 0;
#X connect 3 0 4 0;
#X connect 4 0 8 0;
#X connect 5 0 0 0;
#X connect 5 1 0 1;
#X connect 5 2 6 0;
#X connect 6 0 4 0;
#X connect 7 0 5 0;
#X connect 9 0 6 0;
#X connect 9 0 2 0;
#X restore 223 343 pd key_length;
#N canvas 230 469 587 383 key_length 0;
#X obj 117 91 timer;
#X floatatom 157 115 5 0 0 0 - - -;
#X obj 119 139 delay;
#X msg 119 163 0;
#X obj 119 187 line;
#N canvas 420 366 760 421 bang_switch 0;
#X obj 416 63 f;
#X obj 452 63 + 1;
#X obj 416 8 inlet;
#X obj 416 34 bng 15 250 50 0 empty empty empty 17 7 0 10 -262144 -1
-1;
#X obj 416 85 mod 2;
#X obj 418 122 route 0 1;
#X obj 401 175 outlet;
#X obj 450 176 outlet;
#X obj 507 50 spigot;
#X obj 505 176 outlet;
#X connect 0 0 1 0;
#X connect 0 0 4 0;
#X connect 1 0 0 1;
#X connect 2 0 3 0;
#X connect 2 0 8 1;
#X connect 2 0 8 0;
#X connect 3 0 0 0;
#X connect 4 0 5 0;
#X connect 5 0 6 0;
#X connect 5 1 7 0;
#X connect 8 0 9 0;
#X restore 117 66 pd bang_switch;
#X floatatom 198 116 5 0 0 0 - - -;
#X obj 117 27 inlet;
#X obj 117 213 outlet;
#X obj 217 28 inlet;
#X connect 0 0 1 0;
#X connect 1 0 2 1;
#X connect 2 0 3 0;
#X connect 3 0 4 0;
#X connect 4 0 8 0;
#X connect 5 0 0 0;
#X connect 5 1 0 1;
#X connect 5 2 6 0;
#X connect 6 0 4 0;
#X connect 7 0 5 0;
#X connect 9 0 6 0;
#X connect 9 0 2 0;
#X restore 246 369 pd key_length;
#N canvas 230 469 587 383 key_length 0;
#X obj 117 91 timer;
#X floatatom 157 115 5 0 0 0 - - -;
#X obj 119 139 delay;
#X msg 119 163 0;
#X obj 119 187 line;
#N canvas 420 366 760 421 bang_switch 0;
#X obj 416 63 f;
#X obj 452 63 + 1;
#X obj 416 8 inlet;
#X obj 416 34 bng 15 250 50 0 empty empty empty 17 7 0 10 -262144 -1
-1;
#X obj 416 85 mod 2;
#X obj 418 122 route 0 1;
#X obj 401 175 outlet;
#X obj 450 176 outlet;
#X obj 507 50 spigot;
#X obj 505 176 outlet;
#X connect 0 0 1 0;
#X connect 0 0 4 0;
#X connect 1 0 0 1;
#X connect 2 0 3 0;
#X connect 2 0 8 1;
#X connect 2 0 8 0;
#X connect 3 0 0 0;
#X connect 4 0 5 0;
#X connect 5 0 6 0;
#X connect 5 1 7 0;
#X connect 8 0 9 0;
#X restore 117 66 pd bang_switch;
#X floatatom 198 116 5 0 0 0 - - -;
#X obj 117 27 inlet;
#X obj 117 213 outlet;
#X obj 217 28 inlet;
#X connect 0 0 1 0;
#X connect 1 0 2 1;
#X connect 2 0 3 0;
#X connect 3 0 4 0;
#X connect 4 0 8 0;
#X connect 5 0 0 0;
#X connect 5 1 0 1;
#X connect 5 2 6 0;
#X connect 6 0 4 0;
#X connect 7 0 5 0;
#X connect 9 0 6 0;
#X connect 9 0 2 0;
#X restore 302 422 pd key_length;
#N canvas 230 469 587 383 key_length 0;
#X obj 117 91 timer;
#X floatatom 157 115 5 0 0 0 - - -;
#X obj 119 139 delay;
#X msg 119 163 0;
#X obj 119 187 line;
#N canvas 420 366 760 421 bang_switch 0;
#X obj 416 63 f;
#X obj 452 63 + 1;
#X obj 416 8 inlet;
#X obj 416 34 bng 15 250 50 0 empty empty empty 17 7 0 10 -262144 -1
-1;
#X obj 416 85 mod 2;
#X obj 418 122 route 0 1;
#X obj 401 175 outlet;
#X obj 450 176 outlet;
#X obj 507 50 spigot;
#X obj 505 176 outlet;
#X connect 0 0 1 0;
#X connect 0 0 4 0;
#X connect 1 0 0 1;
#X connect 2 0 3 0;
#X connect 2 0 8 1;
#X connect 2 0 8 0;
#X connect 3 0 0 0;
#X connect 4 0 5 0;
#X connect 5 0 6 0;
#X connect 5 1 7 0;
#X connect 8 0 9 0;
#X restore 117 66 pd bang_switch;
#X floatatom 198 116 5 0 0 0 - - -;
#X obj 117 27 inlet;
#X obj 117 213 outlet;
#X obj 217 28 inlet;
#X connect 0 0 1 0;
#X connect 1 0 2 1;
#X connect 2 0 3 0;
#X connect 3 0 4 0;
#X connect 4 0 8 0;
#X connect 5 0 0 0;
#X connect 5 1 0 1;
#X connect 5 2 6 0;
#X connect 6 0 4 0;
#X connect 7 0 5 0;
#X connect 9 0 6 0;
#X connect 9 0 2 0;
#X restore 268 395 pd key_length;
#N canvas 230 469 587 383 key_length 0;
#X obj 117 91 timer;
#X floatatom 157 115 5 0 0 0 - - -;
#X obj 119 139 delay;
#X msg 119 163 0;
#X obj 119 187 line;
#N canvas 420 366 760 421 bang_switch 0;
#X obj 416 63 f;
#X obj 452 63 + 1;
#X obj 416 8 inlet;
#X obj 416 34 bng 15 250 50 0 empty empty empty 17 7 0 10 -262144 -1
-1;
#X obj 416 85 mod 2;
#X obj 418 122 route 0 1;
#X obj 401 175 outlet;
#X obj 450 176 outlet;
#X obj 507 50 spigot;
#X obj 505 176 outlet;
#X connect 0 0 1 0;
#X connect 0 0 4 0;
#X connect 1 0 0 1;
#X connect 2 0 3 0;
#X connect 2 0 8 1;
#X connect 2 0 8 0;
#X connect 3 0 0 0;
#X connect 4 0 5 0;
#X connect 5 0 6 0;
#X connect 5 1 7 0;
#X connect 8 0 9 0;
#X restore 117 66 pd bang_switch;
#X floatatom 198 116 5 0 0 0 - - -;
#X obj 117 27 inlet;
#X obj 117 213 outlet;
#X obj 217 28 inlet;
#X connect 0 0 1 0;
#X connect 1 0 2 1;
#X connect 2 0 3 0;
#X connect 3 0 4 0;
#X connect 4 0 8 0;
#X connect 5 0 0 0;
#X connect 5 1 0 1;
#X connect 5 2 6 0;
#X connect 6 0 4 0;
#X connect 7 0 5 0;
#X connect 9 0 6 0;
#X connect 9 0 2 0;
#X restore 121 238 pd key_length;
#N canvas 230 469 587 383 key_length 0;
#X obj 117 91 timer;
#X floatatom 157 115 5 0 0 0 - - -;
#X obj 119 139 delay;
#X msg 119 163 0;
#X obj 119 187 line;
#N canvas 420 366 760 421 bang_switch 0;
#X obj 416 63 f;
#X obj 452 63 + 1;
#X obj 416 8 inlet;
#X obj 416 34 bng 15 250 50 0 empty empty empty 17 7 0 10 -262144 -1
-1;
#X obj 416 85 mod 2;
#X obj 418 122 route 0 1;
#X obj 401 175 outlet;
#X obj 450 176 outlet;
#X obj 507 50 spigot;
#X obj 505 176 outlet;
#X connect 0 0 1 0;
#X connect 0 0 4 0;
#X connect 1 0 0 1;
#X connect 2 0 3 0;
#X connect 2 0 8 1;
#X connect 2 0 8 0;
#X connect 3 0 0 0;
#X connect 4 0 5 0;
#X connect 5 0 6 0;
#X connect 5 1 7 0;
#X connect 8 0 9 0;
#X restore 117 66 pd bang_switch;
#X floatatom 198 116 5 0 0 0 - - -;
#X obj 117 27 inlet;
#X obj 117 213 outlet;
#X obj 217 28 inlet;
#X connect 0 0 1 0;
#X connect 1 0 2 1;
#X connect 2 0 3 0;
#X connect 3 0 4 0;
#X connect 4 0 8 0;
#X connect 5 0 0 0;
#X connect 5 1 0 1;
#X connect 5 2 6 0;
#X connect 6 0 4 0;
#X connect 7 0 5 0;
#X connect 9 0 6 0;
#X connect 9 0 2 0;
#X restore 144 264 pd key_length;
#N canvas 230 469 587 383 key_length 0;
#X obj 117 91 timer;
#X floatatom 157 115 5 0 0 0 - - -;
#X obj 119 139 delay;
#X msg 119 163 0;
#X obj 119 187 line;
#N canvas 420 366 760 421 bang_switch 0;
#X obj 416 63 f;
#X obj 452 63 + 1;
#X obj 416 8 inlet;
#X obj 416 34 bng 15 250 50 0 empty empty empty 17 7 0 10 -262144 -1
-1;
#X obj 416 85 mod 2;
#X obj 418 122 route 0 1;
#X obj 401 175 outlet;
#X obj 450 176 outlet;
#X obj 507 50 spigot;
#X obj 505 176 outlet;
#X connect 0 0 1 0;
#X connect 0 0 4 0;
#X connect 1 0 0 1;
#X connect 2 0 3 0;
#X connect 2 0 8 1;
#X connect 2 0 8 0;
#X connect 3 0 0 0;
#X connect 4 0 5 0;
#X connect 5 0 6 0;
#X connect 5 1 7 0;
#X connect 8 0 9 0;
#X restore 117 66 pd bang_switch;
#X floatatom 198 116 5 0 0 0 - - -;
#X obj 117 27 inlet;
#X obj 117 213 outlet;
#X obj 217 28 inlet;
#X connect 0 0 1 0;
#X connect 1 0 2 1;
#X connect 2 0 3 0;
#X connect 3 0 4 0;
#X connect 4 0 8 0;
#X connect 5 0 0 0;
#X connect 5 1 0 1;
#X connect 5 2 6 0;
#X connect 6 0 4 0;
#X connect 7 0 5 0;
#X connect 9 0 6 0;
#X connect 9 0 2 0;
#X restore 200 317 pd key_length;
#N canvas 230 469 587 383 key_length 0;
#X obj 117 91 timer;
#X floatatom 157 115 5 0 0 0 - - -;
#X obj 119 139 delay;
#X msg 119 163 0;
#X obj 119 187 line;
#N canvas 420 366 760 421 bang_switch 0;
#X obj 416 63 f;
#X obj 452 63 + 1;
#X obj 416 8 inlet;
#X obj 416 34 bng 15 250 50 0 empty empty empty 17 7 0 10 -262144 -1
-1;
#X obj 416 85 mod 2;
#X obj 418 122 route 0 1;
#X obj 401 175 outlet;
#X obj 450 176 outlet;
#X obj 507 50 spigot;
#X obj 505 176 outlet;
#X connect 0 0 1 0;
#X connect 0 0 4 0;
#X connect 1 0 0 1;
#X connect 2 0 3 0;
#X connect 2 0 8 1;
#X connect 2 0 8 0;
#X connect 3 0 0 0;
#X connect 4 0 5 0;
#X connect 5 0 6 0;
#X connect 5 1 7 0;
#X connect 8 0 9 0;
#X restore 117 66 pd bang_switch;
#X floatatom 198 116 5 0 0 0 - - -;
#X obj 117 27 inlet;
#X obj 117 213 outlet;
#X obj 217 28 inlet;
#X connect 0 0 1 0;
#X connect 1 0 2 1;
#X connect 2 0 3 0;
#X connect 3 0 4 0;
#X connect 4 0 8 0;
#X connect 5 0 0 0;
#X connect 5 1 0 1;
#X connect 5 2 6 0;
#X connect 6 0 4 0;
#X connect 7 0 5 0;
#X connect 9 0 6 0;
#X connect 9 0 2 0;
#X restore 166 290 pd key_length;
#X text 342 102 comment;
#X connect 0 0 4 0;
#X connect 1 0 3 0;
#X connect 3 0 13 1;
#X connect 3 1 14 1;
#X connect 3 2 16 1;
#X connect 3 3 15 1;
#X connect 3 4 9 1;
#X connect 3 5 10 1;
#X connect 3 6 12 1;
#X connect 3 7 11 1;
#X connect 3 8 21 1;
#X connect 3 9 22 1;
#X connect 3 10 24 1;
#X connect 3 11 23 1;
#X connect 3 12 17 1;
#X connect 3 13 18 1;
#X connect 3 14 20 1;
#X connect 3 15 19 1;
#X coords 0 -1 1 1 300 20 2 100 100;
#X restore 531 413 pd sequence_counter;
#X connect 0 0 4 1;
#X connect 0 0 4 3;
#X connect 0 0 5 1;
#X connect 0 0 6 1;
#X connect 0 0 7 1;
#X connect 0 0 5 3;
#X connect 0 0 6 3;
#X connect 0 0 7 3;
#X connect 0 0 30 1;
#X connect 1 0 4 0;
#X connect 1 0 5 0;
#X connect 1 0 6 0;
#X connect 1 0 7 0;
#X connect 1 0 30 0;
#X connect 2 0 0 0;
#X connect 4 0 17 0;
#X connect 5 0 19 0;
#X connect 6 0 21 0;
#X connect 7 0 23 0;
#X connect 12 0 13 0;
#X connect 12 1 13 1;
#X connect 12 2 13 2;
#X connect 13 0 14 0;
#X connect 14 0 26 0;
#X connect 14 1 27 0;
#X connect 14 2 28 0;
#X connect 14 3 29 0;
#X connect 15 0 12 0;
#X connect 16 0 12 1;
#X connect 16 0 30 2;
#X connect 26 0 4 2;
#X connect 27 0 5 2;
#X connect 28 0 6 2;
#X connect 29 0 7 2;
#X coords 0 -1 1 1 260 175 2 100 100;
#X restore 15 80 pd 16_Step_Record_Sequencer;
#X obj 15 14 notein;
#N canvas 660 223 734 481 polyOSC 0;
#X floatatom 119 129 5 0 0 0 - - -;
#X obj 319 128 bng 15 250 50 0 empty empty empty 17 7 0 10 -262144
-1 -1;
#N canvas 608 286 777 444 4_voice_osc 0;
#N canvas 918 179 450 300 velocity 0;
#X obj 36 115 / 127;
#X obj 77 116 nbx 5 14 -1e+37 1e+37 0 0 empty empty empty 0 -8 0 10
-262144 -1 -1 0 256;
#X obj 35 135 pack 0 50;
#X obj 35 155 line~;
#X obj 35 54 inlet;
#X obj 35 204 outlet~;
#X connect 0 0 2 0;
#X connect 1 0 2 1;
#X connect 2 0 3 0;
#X connect 3 0 5 0;
#X connect 4 0 0 0;
#X restore 111 263 pd velocity;
#X obj 59 342 *~;
#N canvas 926 523 450 300 velocity 0;
#X obj 36 115 / 127;
#X obj 77 116 nbx 5 14 -1e+37 1e+37 0 0 empty empty empty 0 -8 0 10
-262144 -1 -1 0 256;
#X obj 35 135 pack 0 50;
#X obj 35 155 line~;
#X obj 35 54 inlet;
#X obj 35 204 outlet~;
#X connect 0 0 2 0;
#X connect 1 0 2 1;
#X connect 2 0 3 0;
#X connect 3 0 5 0;
#X connect 4 0 0 0;
#X restore 264 260 pd velocity;
#X obj 207 335 *~;
#N canvas 926 523 450 300 velocity 0;
#X obj 36 115 / 127;
#X obj 77 116 nbx 5 14 -1e+37 1e+37 0 0 empty empty empty 0 -8 0 10
-262144 -1 -1 0 256;
#X obj 35 135 pack 0 50;
#X obj 35 155 line~;
#X obj 35 54 inlet;
#X obj 35 204 outlet~;
#X connect 0 0 2 0;
#X connect 1 0 2 1;
#X connect 2 0 3 0;
#X connect 3 0 5 0;
#X connect 4 0 0 0;
#X restore 400 261 pd velocity;
#X obj 345 343 *~;
#N canvas 926 523 450 300 velocity 0;
#X obj 36 115 / 127;
#X obj 77 116 nbx 5 14 -1e+37 1e+37 0 0 empty empty empty 0 -8 0 10
-262144 -1 -1 0 256;
#X obj 35 135 pack 0 50;
#X obj 35 155 line~;
#X obj 35 54 inlet;
#X obj 35 204 outlet~;
#X connect 0 0 2 0;
#X connect 1 0 2 1;
#X connect 2 0 3 0;
#X connect 3 0 5 0;
#X connect 4 0 0 0;
#X restore 538 262 pd velocity;
#X obj 488 344 *~;
#N canvas 763 278 577 444 osc1 0;
#X obj 30 323 outlet~;
#X obj 38 241 mtof;
#N canvas 418 504 450 300 osctune 0;
#X obj 65 136 +;
#X obj 77 76 bng 15 250 50 0 empty empty empty 17 7 0 10 -262144 -1
-1;
#X floatatom 101 82 5 0 0 0 - - -;
#X obj 80 109 / 10;
#X obj 106 30 inlet;
#X obj 58 31 inlet;
#X obj 62 183 outlet;
#X connect 0 0 6 0;
#X connect 1 0 0 0;
#X connect 2 0 1 0;
#X connect 2 0 3 0;
#X connect 3 0 0 1;
#X connect 4 0 2 0;
#X connect 5 0 0 0;
#X restore 30 105 pd osctune;
#N canvas 627 171 627 462 SineSawSquare 0;
#X obj 241 306 phasor~;
#X obj 291 330 expr~ $v1 > 0.5;
#X obj 291 306 phasor~;
#X obj 209 307 osc~;
#X obj 200 245 demux 0 1 2;
#X floatatom 258 187 5 0 0 0 - - -;
#X obj 258 141 + 1;
#X obj 257 91 bng 15 250 50 0 empty empty empty 17 7 0 10 -262144 -1
-1;
#X obj 256 116 f;
#X obj 258 163 mod 3;
#X obj 311 183 - 1;
#X obj 310 215 mod 3;
#X obj 309 245 sel 0;
#X obj 358 184 - 1;
#X obj 357 216 mod 3;
#X obj 406 185 - 1;
#X obj 405 217 mod 3;
#X obj 357 245 sel 1;
#X obj 404 246 sel 2;
#X floatatom 309 270 5 0 0 0 - - -;
#X floatatom 354 271 5 0 0 0 - - -;
#X floatatom 404 271 5 0 0 0 - - -;
#X obj 191 67 inlet;
#X obj 311 52 inlet;
#X obj 277 382 outlet~;
#X obj 222 383 outlet~;
#X obj 155 376 outlet~;
#X connect 0 0 25 0;
#X connect 1 0 24 0;
#X connect 2 0 1 0;
#X connect 3 0 26 0;
#X connect 4 0 3 0;
#X connect 4 1 0 0;
#X connect 4 2 2 0;
#X connect 5 0 4 1;
#X connect 5 0 10 0;
#X connect 5 0 13 0;
#X connect 5 0 15 0;
#X connect 6 0 8 1;
#X connect 6 0 9 0;
#X connect 7 0 8 0;
#X connect 8 0 6 0;
#X connect 9 0 5 0;
#X connect 10 0 11 0;
#X connect 11 0 12 0;
#X connect 12 0 19 0;
#X connect 13 0 14 0;
#X connect 14 0 17 0;
#X connect 15 0 16 0;
#X connect 16 0 18 0;
#X connect 17 0 20 0;
#X connect 18 0 21 0;
#X connect 19 0 3 0;
#X connect 20 0 0 0;
#X connect 21 0 2 0;
#X connect 22 0 4 0;
#X connect 23 0 7 0;
#X restore 38 280 pd SineSawSquare;
#X obj 32 46 inlet;
#X obj 86 45 inlet;
#X obj 309 55 inlet;
#X obj 36 166 pack f f;
#X obj 143 117 f;
#X obj 37 192 line;
#X obj 179 57 inlet;
#X connect 1 0 3 0;
#X connect 2 0 7 0;
#X connect 3 0 0 0;
#X connect 3 1 0 0;
#X connect 3 2 0 0;
#X connect 4 0 2 0;
#X connect 5 0 2 1;
#X connect 6 0 3 1;
#X connect 7 0 9 0;
#X connect 8 0 7 1;
#X connect 9 0 1 0;
#X connect 10 0 8 0;
#X restore 208 258 pd osc1;
#X obj 541 176 inlet;
#X obj 653 189 inlet;
#X obj 577 434 outlet~;
#X obj 56 78 inlet;
#X obj 95 77 inlet;
#N canvas 763 278 577 444 osc1 0;
#X obj 30 323 outlet~;
#X obj 38 241 mtof;
#N canvas 418 504 450 300 osctune 0;
#X obj 65 136 +;
#X obj 77 76 bng 15 250 50 0 empty empty empty 17 7 0 10 -262144 -1
-1;
#X floatatom 101 82 5 0 0 0 - - -;
#X obj 80 109 / 10;
#X obj 106 30 inlet;
#X obj 58 31 inlet;
#X obj 62 183 outlet;
#X connect 0 0 6 0;
#X connect 1 0 0 0;
#X connect 2 0 1 0;
#X connect 2 0 3 0;
#X connect 3 0 0 1;
#X connect 4 0 2 0;
#X connect 5 0 0 0;
#X restore 30 105 pd osctune;
#N canvas 572 288 627 462 SineSawSquare 0;
#X obj 241 306 phasor~;
#X obj 291 330 expr~ $v1 > 0.5;
#X obj 291 306 phasor~;
#X obj 209 307 osc~;
#X obj 200 245 demux 0 1 2;
#X floatatom 258 187 5 0 0 0 - - -;
#X obj 258 141 + 1;
#X obj 257 91 bng 15 250 50 0 empty empty empty 17 7 0 10 -262144 -1
-1;
#X obj 256 116 f;
#X obj 258 163 mod 3;
#X obj 311 183 - 1;
#X obj 310 215 mod 3;
#X obj 309 245 sel 0;
#X obj 358 184 - 1;
#X obj 357 216 mod 3;
#X obj 406 185 - 1;
#X obj 405 217 mod 3;
#X obj 357 245 sel 1;
#X obj 404 246 sel 2;
#X floatatom 309 270 5 0 0 0 - - -;
#X floatatom 354 271 5 0 0 0 - - -;
#X floatatom 404 271 5 0 0 0 - - -;
#X obj 191 67 inlet;
#X obj 311 52 inlet;
#X obj 277 382 outlet~;
#X obj 222 383 outlet~;
#X obj 155 376 outlet~;
#X connect 0 0 25 0;
#X connect 1 0 24 0;
#X connect 2 0 1 0;
#X connect 3 0 26 0;
#X connect 4 0 3 0;
#X connect 4 1 0 0;
#X connect 4 2 2 0;
#X connect 5 0 4 1;
#X connect 5 0 10 0;
#X connect 5 0 13 0;
#X connect 5 0 15 0;
#X connect 6 0 8 1;
#X connect 6 0 9 0;
#X connect 7 0 8 0;
#X connect 8 0 6 0;
#X connect 9 0 5 0;
#X connect 10 0 11 0;
#X connect 11 0 12 0;
#X connect 12 0 19 0;
#X connect 13 0 14 0;
#X connect 14 0 17 0;
#X connect 15 0 16 0;
#X connect 16 0 18 0;
#X connect 17 0 20 0;
#X connect 18 0 21 0;
#X connect 19 0 3 0;
#X connect 20 0 0 0;
#X connect 21 0 2 0;
#X connect 22 0 4 0;
#X connect 23 0 7 0;
#X restore 38 280 pd SineSawSquare;
#X obj 32 46 inlet;
#X obj 86 45 inlet;
#X obj 309 55 inlet;
#X obj 36 166 pack f f;
#X obj 143 117 f;
#X obj 37 192 line;
#X obj 179 57 inlet;
#X connect 1 0 3 0;
#X connect 2 0 7 0;
#X connect 3 0 0 0;
#X connect 3 1 0 0;
#X connect 3 2 0 0;
#X connect 4 0 2 0;
#X connect 5 0 2 1;
#X connect 6 0 3 1;
#X connect 7 0 9 0;
#X connect 8 0 7 1;
#X connect 9 0 1 0;
#X connect 10 0 8 0;
#X restore 54 264 pd osc1;
#N canvas 763 278 577 444 osc1 0;
#X obj 30 323 outlet~;
#X obj 38 241 mtof;
#N canvas 418 504 450 300 osctune 0;
#X obj 65 136 +;
#X obj 77 76 bng 15 250 50 0 empty empty empty 17 7 0 10 -262144 -1
-1;
#X floatatom 101 82 5 0 0 0 - - -;
#X obj 80 109 / 10;
#X obj 106 30 inlet;
#X obj 58 31 inlet;
#X obj 62 183 outlet;
#X connect 0 0 6 0;
#X connect 1 0 0 0;
#X connect 2 0 1 0;
#X connect 2 0 3 0;
#X connect 3 0 0 1;
#X connect 4 0 2 0;
#X connect 5 0 0 0;
#X restore 30 105 pd osctune;
#N canvas 627 171 627 462 SineSawSquare 0;
#X obj 241 306 phasor~;
#X obj 291 330 expr~ $v1 > 0.5;
#X obj 291 306 phasor~;
#X obj 209 307 osc~;
#X obj 200 245 demux 0 1 2;
#X floatatom 258 187 5 0 0 0 - - -;
#X obj 258 141 + 1;
#X obj 257 91 bng 15 250 50 0 empty empty empty 17 7 0 10 -262144 -1
-1;
#X obj 256 116 f;
#X obj 258 163 mod 3;
#X obj 311 183 - 1;
#X obj 310 215 mod 3;
#X obj 309 245 sel 0;
#X obj 358 184 - 1;
#X obj 357 216 mod 3;
#X obj 406 185 - 1;
#X obj 405 217 mod 3;
#X obj 357 245 sel 1;
#X obj 404 246 sel 2;
#X floatatom 309 270 5 0 0 0 - - -;
#X floatatom 354 271 5 0 0 0 - - -;
#X floatatom 404 271 5 0 0 0 - - -;
#X obj 191 67 inlet;
#X obj 311 52 inlet;
#X obj 277 382 outlet~;
#X obj 222 383 outlet~;
#X obj 155 376 outlet~;
#X connect 0 0 25 0;
#X connect 1 0 24 0;
#X connect 2 0 1 0;
#X connect 3 0 26 0;
#X connect 4 0 3 0;
#X connect 4 1 0 0;
#X connect 4 2 2 0;
#X connect 5 0 4 1;
#X connect 5 0 10 0;
#X connect 5 0 13 0;
#X connect 5 0 15 0;
#X connect 6 0 8 1;
#X connect 6 0 9 0;
#X connect 7 0 8 0;
#X connect 8 0 6 0;
#X connect 9 0 5 0;
#X connect 10 0 11 0;
#X connect 11 0 12 0;
#X connect 12 0 19 0;
#X connect 13 0 14 0;
#X connect 14 0 17 0;
#X connect 15 0 16 0;
#X connect 16 0 18 0;
#X connect 17 0 20 0;
#X connect 18 0 21 0;
#X connect 19 0 3 0;
#X connect 20 0 0 0;
#X connect 21 0 2 0;
#X connect 22 0 4 0;
#X connect 23 0 7 0;
#X restore 38 280 pd SineSawSquare;
#X obj 32 46 inlet;
#X obj 86 45 inlet;
#X obj 309 55 inlet;
#X obj 36 166 pack f f;
#X obj 143 117 f;
#X obj 37 192 line;
#X obj 179 57 inlet;
#X connect 1 0 3 0;
#X connect 2 0 7 0;
#X connect 3 0 0 0;
#X connect 3 1 0 0;
#X connect 3 2 0 0;
#X connect 4 0 2 0;
#X connect 5 0 2 1;
#X connect 6 0 3 1;
#X connect 7 0 9 0;
#X connect 8 0 7 1;
#X connect 9 0 1 0;
#X connect 10 0 8 0;
#X restore 345 263 pd osc1;
#N canvas 763 278 577 444 osc1 0;
#X obj 30 323 outlet~;
#X obj 38 241 mtof;
#N canvas 418 504 450 300 osctune 0;
#X obj 65 136 +;
#X obj 77 76 bng 15 250 50 0 empty empty empty 17 7 0 10 -262144 -1
-1;
#X floatatom 101 82 5 0 0 0 - - -;
#X obj 80 109 / 10;
#X obj 106 30 inlet;
#X obj 58 31 inlet;
#X obj 62 183 outlet;
#X connect 0 0 6 0;
#X connect 1 0 0 0;
#X connect 2 0 1 0;
#X connect 2 0 3 0;
#X connect 3 0 0 1;
#X connect 4 0 2 0;
#X connect 5 0 0 0;
#X restore 30 105 pd osctune;
#N canvas 627 171 627 462 SineSawSquare 0;
#X obj 241 306 phasor~;
#X obj 291 330 expr~ $v1 > 0.5;
#X obj 291 306 phasor~;
#X obj 209 307 osc~;
#X obj 200 245 demux 0 1 2;
#X floatatom 258 187 5 0 0 0 - - -;
#X obj 258 141 + 1;
#X obj 257 91 bng 15 250 50 0 empty empty empty 17 7 0 10 -262144 -1
-1;
#X obj 256 116 f;
#X obj 258 163 mod 3;
#X obj 311 183 - 1;
#X obj 310 215 mod 3;
#X obj 309 245 sel 0;
#X obj 358 184 - 1;
#X obj 357 216 mod 3;
#X obj 406 185 - 1;
#X obj 405 217 mod 3;
#X obj 357 245 sel 1;
#X obj 404 246 sel 2;
#X floatatom 309 270 5 0 0 0 - - -;
#X floatatom 354 271 5 0 0 0 - - -;
#X floatatom 404 271 5 0 0 0 - - -;
#X obj 191 67 inlet;
#X obj 311 52 inlet;
#X obj 277 382 outlet~;
#X obj 222 383 outlet~;
#X obj 155 376 outlet~;
#X connect 0 0 25 0;
#X connect 1 0 24 0;
#X connect 2 0 1 0;
#X connect 3 0 26 0;
#X connect 4 0 3 0;
#X connect 4 1 0 0;
#X connect 4 2 2 0;
#X connect 5 0 4 1;
#X connect 5 0 10 0;
#X connect 5 0 13 0;
#X connect 5 0 15 0;
#X connect 6 0 8 1;
#X connect 6 0 9 0;
#X connect 7 0 8 0;
#X connect 8 0 6 0;
#X connect 9 0 5 0;
#X connect 10 0 11 0;
#X connect 11 0 12 0;
#X connect 12 0 19 0;
#X connect 13 0 14 0;
#X connect 14 0 17 0;
#X connect 15 0 16 0;
#X connect 16 0 18 0;
#X connect 17 0 20 0;
#X connect 18 0 21 0;
#X connect 19 0 3 0;
#X connect 20 0 0 0;
#X connect 21 0 2 0;
#X connect 22 0 4 0;
#X connect 23 0 7 0;
#X restore 38 280 pd SineSawSquare;
#X obj 32 46 inlet;
#X obj 86 45 inlet;
#X obj 309 55 inlet;
#X obj 36 166 pack f f;
#X obj 143 117 f;
#X obj 37 192 line;
#X obj 179 57 inlet;
#X connect 1 0 3 0;
#X connect 2 0 7 0;
#X connect 3 0 0 0;
#X connect 3 1 0 0;
#X connect 3 2 0 0;
#X connect 4 0 2 0;
#X connect 5 0 2 1;
#X connect 6 0 3 1;
#X connect 7 0 9 0;
#X connect 8 0 7 1;
#X connect 9 0 1 0;
#X connect 10 0 8 0;
#X restore 482 262 pd osc1;
#X obj 596 184 inlet;
#N canvas 1010 386 450 300 vol 0;
#X obj 64 137 / 127;
#X obj 105 138 nbx 5 14 -1e+37 1e+37 0 0 empty empty empty 0 -8 0 10
-262144 -1 -1 0 256;
#X obj 63 157 pack 0 50;
#X obj 63 177 line~;
#X obj 44 223 *~;
#X obj 80 106 inlet;
#X obj 46 262 outlet~;
#X obj 23 107 inlet~;
#X connect 0 0 2 0;
#X connect 1 0 2 1;
#X connect 2 0 3 0;
#X connect 3 0 4 1;
#X connect 4 0 6 0;
#X connect 5 0 0 0;
#X connect 7 0 4 0;
#X restore 577 413 pd vol;
#X obj 702 188 inlet;
#X obj 193 82 inlet;
#X obj 230 83 inlet;
#X obj 352 91 inlet;
#X obj 391 91 inlet;
#X obj 428 90 inlet;
#X obj 465 90 inlet;
#X connect 0 0 1 1;
#X connect 1 0 18 0;
#X connect 2 0 3 1;
#X connect 3 0 18 0;
#X connect 4 0 5 1;
#X connect 5 0 18 0;
#X connect 6 0 7 1;
#X connect 7 0 18 0;
#X connect 8 0 3 0;
#X connect 9 0 8 1;
#X connect 9 0 14 1;
#X connect 9 0 15 1;
#X connect 9 0 16 1;
#X connect 10 0 8 3;
#X connect 10 0 14 3;
#X connect 10 0 15 3;
#X connect 10 0 16 3;
#X connect 12 0 14 0;
#X connect 13 0 0 0;
#X connect 14 0 1 0;
#X connect 15 0 5 0;
#X connect 16 0 7 0;
#X connect 17 0 15 2;
#X connect 17 0 8 2;
#X connect 17 0 14 2;
#X connect 17 0 16 2;
#X connect 18 0 11 0;
#X connect 19 0 18 1;
#X connect 20 0 8 0;
#X connect 21 0 2 0;
#X connect 22 0 15 0;
#X connect 23 0 4 0;
#X connect 24 0 16 0;
#X connect 25 0 6 0;
#X coords 0 -1 1 1 125 60 1 100 100;
#X restore -98 294 pd 4_voice_osc;
#X floatatom 213 129 5 0 0 0 - - -;
#X text 107 106 OSC TUNE;
#X text 195 106 PORTAMENTO;
#X text 302 105 WAVEFORM;
#X text 110 154 VOLUME;
#X obj -302 213 inlet;
#X obj -259 213 inlet;
#X obj 158 155 hsl 165 15 0 127 0 0 empty empty empty -2 -8 0 10 -262144
-1 -1 0 1;
#X text 110 178 OUT;
#X obj 14 385 outlet~;
#X obj -220 213 inlet;
#X obj -180 212 inlet;
#X obj -141 212 inlet;
#X obj -102 212 inlet;
#X obj -62 211 inlet;
#X obj -20 211 inlet;
#X connect 0 0 2 8;
#X connect 1 0 2 10;
#X connect 2 0 12 0;
#X connect 3 0 2 9;
#X connect 8 0 2 0;
#X connect 9 0 2 1;
#X connect 10 0 2 11;
#X connect 13 0 2 2;
#X connect 14 0 2 3;
#X connect 15 0 2 4;
#X connect 16 0 2 5;
#X connect 17 0 2 6;
#X connect 18 0 2 7;
#X coords 0 -1 1 1 260 100 2 100 100;
#X restore 15 259 pd polyOSC;
#X obj 16 388 dac~;
#X connect 0 0 2 0;
#X connect 0 1 2 1;
#X connect 0 2 2 2;
#X connect 0 3 2 3;
#X connect 0 4 2 4;
#X connect 0 5 2 5;
#X connect 0 6 2 6;
#X connect 0 7 2 7;
#X connect 1 0 0 0;
#X connect 1 1 0 1;
#X connect 2 0 3 0;
#X connect 2 0 3 1;
